# Blender v2.79 (sub 0) OBJ File: ''
# www.blender.org
mtllib cylinder.mtl
o Cylinder
v 0.000000 -0.250000 -0.200000
v 0.000000 0.250000 -0.200000
v 0.039018 -0.250000 -0.196157
v 0.039018 0.250000 -0.196157
v 0.076537 -0.250000 -0.184776
v 0.076537 0.250000 -0.184776
v 0.111114 -0.250000 -0.166294
v 0.111114 0.250000 -0.166294
v 0.141421 -0.250000 -0.141421
v 0.141421 0.250000 -0.141421
v 0.166294 -0.250000 -0.111114
v 0.166294 0.250000 -0.111114
v 0.184776 -0.250000 -0.076537
v 0.184776 0.250000 -0.076537
v 0.196157 -0.250000 -0.039018
v 0.196157 0.250000 -0.039018
v 0.200000 -0.250000 -0.000000
v 0.200000 0.250000 -0.000000
v 0.196157 -0.250000 0.039018
v 0.196157 0.250000 0.039018
v 0.184776 -0.250000 0.076537
v 0.184776 0.250000 0.076537
v 0.166294 -0.250000 0.111114
v 0.166294 0.250000 0.111114
v 0.141421 -0.250000 0.141421
v 0.141421 0.250000 0.141421
v 0.111114 -0.250000 0.166294
v 0.111114 0.250000 0.166294
v 0.076537 -0.250000 0.184776
v 0.076537 0.250000 0.184776
v 0.039018 -0.250000 0.196157
v 0.039018 0.250000 0.196157
v -0.000000 -0.250000 0.200000
v -0.000000 0.250000 0.200000
v -0.039018 -0.250000 0.196157
v -0.039018 0.250000 0.196157
v -0.076537 -0.250000 0.184776
v -0.076537 0.250000 0.184776
v -0.111114 -0.250000 0.166294
v -0.111114 0.250000 0.166294
v -0.141421 -0.250000 0.141421
v -0.141421 0.250000 0.141421
v -0.166294 -0.250000 0.111114
v -0.166294 0.250000 0.111114
v -0.184776 -0.250000 0.076537
v -0.184776 0.250000 0.076537
v -0.196157 -0.250000 0.039018
v -0.196157 0.250000 0.039018
v -0.200000 -0.250000 -0.000000
v -0.200000 0.250000 -0.000000
v -0.196157 -0.250000 -0.039018
v -0.196157 0.250000 -0.039018
v -0.184776 -0.250000 -0.076537
v -0.184776 0.250000 -0.076537
v -0.166294 -0.250000 -0.111114
v -0.166294 0.250000 -0.111114
v -0.141421 -0.250000 -0.141422
v -0.141421 0.250000 -0.141422
v -0.111114 -0.250000 -0.166294
v -0.111114 0.250000 -0.166294
v -0.076536 -0.250000 -0.184776
v -0.076536 0.250000 -0.184776
v -0.039018 -0.250000 -0.196157
v -0.039018 0.250000 -0.196157
vt 0.500000 0.625000
vt 0.509755 0.375000
vt 0.500000 0.375000
vt 0.509755 0.625000
vt 0.519134 0.375000
vt 0.519134 0.625000
vt 0.527779 0.375000
vt 0.527779 0.625000
vt 0.535355 0.375000
vt 0.535355 0.625000
vt 0.527779 0.375000
vt 0.527779 0.625000
vt 0.519134 0.375000
vt 0.519134 0.625000
vt 0.509755 0.375000
vt 0.509755 0.625000
vt 0.500000 0.375000
vt 0.500000 0.625000
vt 0.490245 0.375000
vt 0.490245 0.625000
vt 0.480866 0.375000
vt 0.480866 0.625000
vt 0.472221 0.375000
vt 0.472221 0.625000
vt 0.464645 0.375000
vt 0.535355 0.625000
vt 0.527779 0.375000
vt 0.535355 0.375000
vt 0.527779 0.625000
vt 0.519134 0.375000
vt 0.519134 0.625000
vt 0.509755 0.375000
vt 0.509755 0.625000
vt 0.500000 0.375000
vt 0.500000 0.625000
vt 0.490245 0.375000
vt 0.490245 0.625000
vt 0.480866 0.375000
vt 0.480866 0.625000
vt 0.472221 0.375000
vt 0.472221 0.625000
vt 0.464645 0.375000
vt 0.464645 0.625000
vt 0.472222 0.375000
vt 0.472222 0.625000
vt 0.480866 0.375000
vt 0.480866 0.625000
vt 0.490246 0.375000
vt 0.490246 0.625000
vt 0.500000 0.375000
vt 0.500000 0.625000
vt 0.509755 0.375000
vt 0.509755 0.625000
vt 0.519134 0.375000
vt 0.519134 0.625000
vt 0.527779 0.375000
vt 0.527779 0.625000
vt 0.535355 0.375000
vt 0.464645 0.625000
vt 0.472222 0.375000
vt 0.464645 0.375000
vt 0.472222 0.625000
vt 0.480866 0.375000
vt 0.480866 0.407612
vt 0.546194 0.461732
vt 0.519134 0.592388
vt 0.480866 0.625000
vt 0.490246 0.375000
vt 0.490246 0.625000
vt 0.509755 0.401921
vt 0.450961 0.480491
vt 0.490246 0.598079
vt 0.464645 0.625000
vt 0.535355 0.625000
vt 0.509755 0.598079
vt 0.500000 0.600000
vt 0.490246 0.598079
vt 0.480866 0.592388
vt 0.472222 0.583147
vt 0.453806 0.538268
vt 0.464645 0.570711
vt 0.458427 0.555557
vt 0.450961 0.519509
vt 0.450000 0.500000
vt 0.450961 0.480491
vt 0.453806 0.461732
vt 0.458427 0.444443
vt 0.464645 0.429289
vt 0.472221 0.416853
vt 0.490245 0.401921
vt 0.500000 0.400000
vt 0.509755 0.401921
vt 0.519134 0.407612
vt 0.527779 0.416853
vt 0.535355 0.429289
vt 0.541574 0.444443
vt 0.549039 0.480491
vt 0.550000 0.500000
vt 0.549039 0.519509
vt 0.546194 0.538268
vt 0.541574 0.555557
vt 0.535355 0.570711
vt 0.527779 0.583147
vt 0.500000 0.600000
vt 0.509755 0.598079
vt 0.519134 0.592388
vt 0.527779 0.583147
vt 0.535355 0.570711
vt 0.541574 0.555557
vt 0.546194 0.538268
vt 0.549039 0.519509
vt 0.550000 0.500000
vt 0.549039 0.480491
vt 0.546194 0.461732
vt 0.541574 0.444443
vt 0.535355 0.429289
vt 0.527779 0.416853
vt 0.519134 0.407612
vt 0.500000 0.400000
vt 0.490245 0.401921
vt 0.480866 0.407612
vt 0.472221 0.416853
vt 0.464645 0.429289
vt 0.458427 0.444443
vt 0.453806 0.461732
vt 0.450000 0.500000
vt 0.450961 0.519509
vt 0.453806 0.538268
vt 0.458427 0.555557
vt 0.464645 0.570711
vt 0.472222 0.583147
vt 0.480866 0.592388
vn 0.0980 0.0000 -0.9952
vn 0.2903 0.0000 -0.9569
vn 0.4714 0.0000 -0.8819
vn 0.6344 0.0000 -0.7730
vn 0.7730 0.0000 -0.6344
vn 0.8819 0.0000 -0.4714
vn 0.9569 0.0000 -0.2903
vn 0.9952 0.0000 -0.0980
vn 0.9952 0.0000 0.0980
vn 0.9569 0.0000 0.2903
vn 0.8819 0.0000 0.4714
vn 0.7730 0.0000 0.6344
vn 0.6344 0.0000 0.7730
vn 0.4714 0.0000 0.8819
vn 0.2903 0.0000 0.9569
vn 0.0980 0.0000 0.9952
vn -0.0980 0.0000 0.9952
vn -0.2903 0.0000 0.9569
vn -0.4714 0.0000 0.8819
vn -0.6344 0.0000 0.7730
vn -0.7730 0.0000 0.6344
vn -0.8819 0.0000 0.4714
vn -0.9569 0.0000 0.2903
vn -0.9952 0.0000 0.0980
vn -0.9952 0.0000 -0.0980
vn -0.9569 0.0000 -0.2903
vn -0.8819 0.0000 -0.4714
vn -0.7730 0.0000 -0.6344
vn -0.6344 0.0000 -0.7730
vn -0.4714 0.0000 -0.8819
vn 0.0000 1.0000 -0.0000
vn -0.2903 0.0000 -0.9569
vn -0.0980 0.0000 -0.9952
vn 0.0000 -1.0000 -0.0000
usemtl None
s off
f 2/1/1 3/2/1 1/3/1
f 4/4/2 5/5/2 3/2/2
f 6/6/3 7/7/3 5/5/3
f 8/8/4 9/9/4 7/7/4
f 10/10/5 11/11/5 9/9/5
f 12/12/6 13/13/6 11/11/6
f 14/14/7 15/15/7 13/13/7
f 16/16/8 17/17/8 15/15/8
f 18/18/9 19/19/9 17/17/9
f 20/20/10 21/21/10 19/19/10
f 22/22/11 23/23/11 21/21/11
f 24/24/12 25/25/12 23/23/12
f 26/26/13 27/27/13 25/28/13
f 28/29/14 29/30/14 27/27/14
f 30/31/15 31/32/15 29/30/15
f 32/33/16 33/34/16 31/32/16
f 34/35/17 35/36/17 33/34/17
f 36/37/18 37/38/18 35/36/18
f 38/39/19 39/40/19 37/38/19
f 40/41/20 41/42/20 39/40/20
f 42/43/21 43/44/21 41/42/21
f 44/45/22 45/46/22 43/44/22
f 46/47/23 47/48/23 45/46/23
f 48/49/24 49/50/24 47/48/24
f 50/51/25 51/52/25 49/50/25
f 52/53/26 53/54/26 51/52/26
f 54/55/27 55/56/27 53/54/27
f 56/57/28 57/58/28 55/56/28
f 58/59/29 59/60/29 57/61/29
f 60/62/30 61/63/30 59/60/30
f 38/64/31 22/65/31 6/66/31
f 62/67/32 63/68/32 61/63/32
f 64/69/33 1/3/33 63/68/33
f 31/70/34 47/71/34 63/72/34
f 2/1/1 4/4/1 3/2/1
f 4/4/2 6/6/2 5/5/2
f 6/6/3 8/8/3 7/7/3
f 8/8/4 10/10/4 9/9/4
f 10/10/5 12/12/5 11/11/5
f 12/12/6 14/14/6 13/13/6
f 14/14/7 16/16/7 15/15/7
f 16/16/8 18/18/8 17/17/8
f 18/18/9 20/20/9 19/19/9
f 20/20/10 22/22/10 21/21/10
f 22/22/11 24/24/11 23/23/11
f 24/24/12 26/73/12 25/25/12
f 26/26/13 28/29/13 27/27/13
f 28/29/14 30/31/14 29/30/14
f 30/31/15 32/33/15 31/32/15
f 32/33/16 34/35/16 33/34/16
f 34/35/17 36/37/17 35/36/17
f 36/37/18 38/39/18 37/38/18
f 38/39/19 40/41/19 39/40/19
f 40/41/20 42/43/20 41/42/20
f 42/43/21 44/45/21 43/44/21
f 44/45/22 46/47/22 45/46/22
f 46/47/23 48/49/23 47/48/23
f 48/49/24 50/51/24 49/50/24
f 50/51/25 52/53/25 51/52/25
f 52/53/26 54/55/26 53/54/26
f 54/55/27 56/57/27 55/56/27
f 56/57/28 58/74/28 57/58/28
f 58/59/29 60/62/29 59/60/29
f 60/62/30 62/67/30 61/63/30
f 6/66/31 4/75/31 2/76/31
f 2/76/31 64/77/31 6/66/31
f 62/78/31 60/79/31 54/80/31
f 58/81/31 56/82/31 54/80/31
f 54/80/31 52/83/31 50/84/31
f 50/84/31 48/85/31 54/80/31
f 46/86/31 44/87/31 42/88/31
f 42/88/31 40/89/31 38/64/31
f 38/64/31 36/90/31 34/91/31
f 34/91/31 32/92/31 30/93/31
f 30/93/31 28/94/31 22/65/31
f 26/95/31 24/96/31 22/65/31
f 22/65/31 20/97/31 18/98/31
f 18/98/31 16/99/31 14/100/31
f 14/100/31 12/101/31 10/102/31
f 10/102/31 8/103/31 14/100/31
f 6/66/31 64/77/31 62/78/31
f 60/79/31 58/81/31 54/80/31
f 54/80/31 48/85/31 46/86/31
f 46/86/31 42/88/31 54/80/31
f 38/64/31 34/91/31 22/65/31
f 28/94/31 26/95/31 22/65/31
f 22/65/31 18/98/31 14/100/31
f 14/100/31 8/103/31 6/66/31
f 6/66/31 62/78/31 54/80/31
f 54/80/31 42/88/31 38/64/31
f 34/91/31 30/93/31 22/65/31
f 22/65/31 14/100/31 6/66/31
f 6/66/31 54/80/31 38/64/31
f 62/67/32 64/69/32 63/68/32
f 64/69/33 2/1/33 1/3/33
f 63/72/34 1/104/34 3/105/34
f 3/105/34 5/106/34 7/107/34
f 7/107/34 9/108/34 11/109/34
f 11/109/34 13/110/34 7/107/34
f 15/111/34 17/112/34 19/113/34
f 19/113/34 21/114/34 15/111/34
f 23/115/34 25/116/34 27/117/34
f 27/117/34 29/118/34 31/70/34
f 31/70/34 33/119/34 35/120/34
f 35/120/34 37/121/34 39/122/34
f 39/122/34 41/123/34 43/124/34
f 43/124/34 45/125/34 47/71/34
f 47/71/34 49/126/34 51/127/34
f 51/127/34 53/128/34 47/71/34
f 55/129/34 57/130/34 59/131/34
f 59/131/34 61/132/34 55/129/34
f 63/72/34 3/105/34 7/107/34
f 7/107/34 13/110/34 15/111/34
f 15/111/34 21/114/34 23/115/34
f 23/115/34 27/117/34 31/70/34
f 31/70/34 35/120/34 39/122/34
f 39/122/34 43/124/34 47/71/34
f 47/71/34 53/128/34 55/129/34
f 55/129/34 61/132/34 63/72/34
f 63/72/34 7/107/34 15/111/34
f 15/111/34 23/115/34 31/70/34
f 31/70/34 39/122/34 47/71/34
f 47/71/34 55/129/34 63/72/34
f 63/72/34 15/111/34 31/70/34
