# Blender v2.79 (sub 0) OBJ File: ''
# www.blender.org
mtllib paddle.mtl
o Cylinder
v 0.000000 -0.091410 -0.069022
v 0.000000 0.091410 -0.069022
v 0.017558 -0.091410 -0.067696
v 0.017558 0.091410 -0.067696
v 0.034442 -0.091410 -0.063768
v 0.034442 0.091410 -0.063768
v 0.050002 -0.091410 -0.057390
v 0.050002 0.091410 -0.057390
v 0.063640 -0.091410 -0.048806
v 0.063640 0.091410 -0.048806
v 0.074833 -0.091410 -0.038347
v 0.074833 0.091410 -0.038347
v 0.083150 -0.091410 -0.026414
v 0.083150 0.091410 -0.026414
v 0.088271 -0.091410 -0.013466
v 0.088271 0.091410 -0.013466
v 0.090001 -0.091410 -0.000000
v 0.090001 0.091410 -0.000000
v 0.088271 -0.091410 0.013465
v 0.088271 0.091410 0.013465
v 0.083150 -0.091410 0.026414
v 0.083150 0.091410 0.026414
v 0.074833 -0.091410 0.038346
v 0.074833 0.091410 0.038346
v 0.063640 -0.091410 0.048806
v 0.063640 0.091410 0.048806
v 0.050002 -0.091410 0.057390
v 0.050002 0.091410 0.057390
v 0.034442 -0.091410 0.063768
v 0.034442 0.091410 0.063768
v -0.632442 -0.091410 0.067696
v -0.632442 0.091410 0.067696
v -0.650000 -0.091410 0.069022
v -0.650000 0.091410 0.069022
v -0.667558 -0.091410 0.067696
v -0.667558 0.091410 0.067696
v -0.684442 -0.091410 0.063768
v -0.684442 0.091410 0.063768
v -0.700002 -0.091410 0.057390
v -0.700002 0.091410 0.057390
v -0.713640 -0.091410 0.048806
v -0.713640 0.091410 0.048806
v -0.724833 -0.091410 0.038346
v -0.724833 0.091410 0.038346
v -0.733150 -0.091410 0.026413
v -0.733150 0.091410 0.026413
v -0.738271 -0.091410 0.013465
v -0.738271 0.091410 0.013465
v -0.740001 -0.091410 -0.000000
v -0.740001 0.091410 -0.000000
v -0.738271 -0.091410 -0.013466
v -0.738271 0.091410 -0.013466
v -0.733150 -0.091410 -0.026414
v -0.733150 0.091410 -0.026414
v -0.724833 -0.091410 -0.038347
v -0.724833 0.091410 -0.038347
v -0.713640 -0.091410 -0.048806
v -0.713640 0.091410 -0.048806
v -0.700002 -0.091410 -0.057390
v -0.700002 0.091410 -0.057390
v -0.684442 -0.091410 -0.063768
v -0.684442 0.091410 -0.063768
v -0.667558 -0.091410 -0.067696
v -0.667558 0.091410 -0.067696
vt 0.039762 1.000000
vt 0.030463 0.000000
vt 0.039762 0.000000
vt 0.030463 1.000000
vt 0.021508 0.000000
vt 0.021508 1.000000
vt 0.013240 0.000000
vt 0.013240 1.000000
vt 0.005978 0.000000
vt 0.005978 1.000000
vt 0.000000 0.000000
vt 0.927624 1.000000
vt 0.921891 0.000000
vt 0.927624 0.000000
vt 0.921891 1.000000
vt 0.915419 0.000000
vt 0.915419 1.000000
vt 0.908457 0.000000
vt 0.908457 1.000000
vt 0.901272 0.000000
vt 0.901272 1.000000
vt 0.894140 0.000000
vt 0.894140 1.000000
vt 0.887336 0.000000
vt 0.887336 1.000000
vt 0.881120 0.000000
vt 0.417334 0.000000
vt 0.424416 1.000000
vt 0.417334 1.000000
vt 0.424416 0.000000
vt 0.432548 1.000000
vt 0.432548 0.000000
vt 0.785283 1.000000
vt 0.785283 0.000000
vt 0.794552 1.000000
vt 0.794551 0.000000
vt 0.803861 1.000000
vt 0.803861 0.000000
vt 0.812854 1.000000
vt 0.812854 0.000000
vt 0.821184 1.000000
vt 0.821184 0.000000
vt 0.828533 1.000000
vt 0.828533 0.000000
vt 0.834617 1.000000
vt 0.834617 0.000000
vt 0.840350 1.000000
vt 0.840350 0.000000
vt 0.846822 1.000000
vt 0.846822 0.000000
vt 0.853784 1.000000
vt 0.853784 0.000000
vt 0.860969 1.000000
vt 0.860969 0.000000
vt 0.868101 1.000000
vt 0.868101 0.000000
vt 0.874905 1.000000
vt 0.874905 0.000000
vt 0.881120 1.000000
vt 0.417334 1.000000
vt 0.410161 0.000000
vt 0.417334 0.000000
vt 0.410161 1.000000
vt 0.401959 0.000000
vt 0.933044 0.020056
vt 0.937573 0.013229
vt 0.989234 0.013132
vt 0.401959 1.000000
vt 0.393044 0.000000
vt 0.393044 1.000000
vt 0.933833 0.434942
vt 0.997939 0.442843
vt 0.930441 0.442716
vt 0.000000 1.000000
vt 0.881120 1.000000
vt 0.881120 0.000000
vt 0.997183 0.027716
vt 0.999280 0.036154
vt 0.929685 0.027843
vt 1.000000 0.044932
vt 1.000000 0.378711
vt 0.928307 0.361288
vt 0.997939 0.387157
vt 0.994580 0.394943
vt 0.933833 0.395057
vt 0.990051 0.401771
vt 0.984527 0.407378
vt 0.943937 0.407454
vt 0.978220 0.411548
vt 0.971373 0.414122
vt 0.957120 0.414148
vt 0.964248 0.415000
vt 0.950262 0.411601
vt 0.938390 0.401868
vt 0.930441 0.387284
vt 0.928344 0.378846
vt 0.993791 0.019942
vt 0.977362 0.003399
vt 0.983686 0.007546
vt 0.949403 0.003452
vt 0.963376 0.000000
vt 0.970504 0.000851
vt 0.956251 0.000878
vt 0.943097 0.007622
vt 0.927624 0.370068
vt 1.000000 0.451288
vt 1.000000 0.785068
vt 0.928307 0.468712
vt 0.999280 0.793846
vt 0.997183 0.802283
vt 0.929685 0.802157
vt 0.993791 0.810057
vt 0.989234 0.816868
vt 0.933044 0.809943
vt 0.983686 0.822454
vt 0.977362 0.826600
vt 0.943097 0.822378
vt 0.970504 0.829148
vt 0.963376 0.830000
vt 0.956251 0.829121
vt 0.949403 0.826548
vt 0.937573 0.816771
vt 0.927624 0.459931
vt 0.928344 0.451154
vt 0.938390 0.428132
vt 0.990051 0.428229
vt 0.943937 0.422546
vt 0.950262 0.418399
vt 0.984527 0.422622
vt 0.957120 0.415851
vt 0.964248 0.415000
vt 0.971373 0.415878
vt 0.978220 0.418451
vt 0.994580 0.435056
vn 0.0753 0.0000 -0.9972
vn 0.2266 0.0000 -0.9740
vn 0.3793 0.0000 -0.9253
vn 0.5327 0.0000 -0.8463
vn 0.6828 0.0000 -0.7306
vn 0.8204 0.0000 -0.5718
vn 0.9299 0.0000 -0.3678
vn 0.9919 0.0000 -0.1274
vn 0.9919 0.0000 0.1274
vn 0.9299 0.0000 0.3678
vn 0.8204 0.0000 0.5718
vn 0.6828 0.0000 0.7306
vn 0.5327 0.0000 0.8463
vn 0.3793 0.0000 0.9253
vn 0.0059 0.0000 1.0000
vn 0.0753 0.0000 0.9972
vn -0.0753 0.0000 0.9972
vn -0.2266 0.0000 0.9740
vn -0.3793 0.0000 0.9253
vn -0.5327 0.0000 0.8463
vn -0.6828 0.0000 0.7306
vn -0.8204 0.0000 0.5718
vn -0.9299 0.0000 0.3678
vn -0.9919 0.0000 0.1274
vn -0.9919 0.0000 -0.1274
vn -0.9299 0.0000 -0.3678
vn -0.8204 0.0000 -0.5718
vn -0.6828 0.0000 -0.7306
vn -0.5327 0.0000 -0.8463
vn -0.3793 0.0000 -0.9253
vn 0.0000 1.0000 0.0000
vn -0.2266 0.0000 -0.9740
vn -0.0020 0.0000 -1.0000
vn 0.0000 -1.0000 0.0000
usemtl None
s off
f 2/1/1 3/2/1 1/3/1
f 4/4/2 5/5/2 3/2/2
f 6/6/3 7/7/3 5/5/3
f 8/8/4 9/9/4 7/7/4
f 10/10/5 11/11/5 9/9/5
f 12/12/6 13/13/6 11/14/6
f 14/15/7 15/16/7 13/13/7
f 16/17/8 17/18/8 15/16/8
f 18/19/9 19/20/9 17/18/9
f 20/21/10 21/22/10 19/20/10
f 22/23/11 23/24/11 21/22/11
f 24/25/12 25/26/12 23/24/12
f 26/27/13 27/28/13 25/29/13
f 28/30/14 29/31/14 27/28/14
f 30/32/15 31/33/15 29/31/15
f 32/34/16 33/35/16 31/33/16
f 34/36/17 35/37/17 33/35/17
f 36/38/18 37/39/18 35/37/18
f 38/40/19 39/41/19 37/39/19
f 40/42/20 41/43/20 39/41/20
f 42/44/21 43/45/21 41/43/21
f 44/46/22 45/47/22 43/45/22
f 46/48/23 47/49/23 45/47/23
f 48/50/24 49/51/24 47/49/24
f 50/52/25 51/53/25 49/51/25
f 52/54/26 53/55/26 51/53/26
f 54/56/27 55/57/27 53/55/27
f 56/58/28 57/59/28 55/57/28
f 58/60/29 59/61/29 57/62/29
f 60/63/30 61/64/30 59/61/30
f 28/65/31 26/66/31 10/67/31
f 62/68/32 63/69/32 61/64/32
f 64/70/33 1/3/33 63/69/33
f 39/71/34 61/72/34 37/73/34
f 2/1/1 4/4/1 3/2/1
f 4/4/2 6/6/2 5/5/2
f 6/6/3 8/8/3 7/7/3
f 8/8/4 10/10/4 9/9/4
f 10/10/5 12/74/5 11/11/5
f 12/12/6 14/15/6 13/13/6
f 14/15/7 16/17/7 15/16/7
f 16/17/8 18/19/8 17/18/8
f 18/19/9 20/21/9 19/20/9
f 20/21/10 22/23/10 21/22/10
f 22/23/11 24/25/11 23/24/11
f 24/25/12 26/75/12 25/26/12
f 26/27/13 28/30/13 27/28/13
f 28/30/14 30/32/14 29/31/14
f 30/32/15 32/34/15 31/33/15
f 32/34/16 34/36/16 33/35/16
f 34/36/17 36/38/17 35/37/17
f 36/38/18 38/40/18 37/39/18
f 38/40/19 40/42/19 39/41/19
f 40/42/20 42/44/20 41/43/20
f 42/44/21 44/46/21 43/45/21
f 44/46/22 46/48/22 45/47/22
f 46/48/23 48/50/23 47/49/23
f 48/50/24 50/52/24 49/51/24
f 50/52/25 52/54/25 51/53/25
f 52/54/26 54/56/26 53/55/26
f 54/56/27 56/58/27 55/57/27
f 56/58/28 58/76/28 57/59/28
f 58/60/29 60/63/29 59/61/29
f 60/63/30 62/68/30 61/64/30
f 6/77/31 4/78/31 30/79/31
f 2/80/31 64/81/31 32/82/31
f 62/83/31 60/84/31 40/85/31
f 58/86/31 56/87/31 44/88/31
f 54/89/31 52/90/31 48/91/31
f 50/92/31 48/91/31 52/90/31
f 46/93/31 44/88/31 56/87/31
f 42/94/31 40/85/31 60/84/31
f 38/95/31 36/96/31 62/83/31
f 32/82/31 30/79/31 2/80/31
f 36/96/31 64/81/31 62/83/31
f 44/88/31 42/94/31 58/86/31
f 54/89/31 48/91/31 46/93/31
f 60/84/31 58/86/31 42/94/31
f 4/78/31 2/80/31 30/79/31
f 10/67/31 8/97/31 28/65/31
f 14/98/31 12/99/31 22/100/31
f 18/101/31 16/102/31 20/103/31
f 22/100/31 20/103/31 16/102/31
f 26/66/31 24/104/31 10/67/31
f 30/79/31 28/65/31 8/97/31
f 40/85/31 38/95/31 62/83/31
f 56/87/31 54/89/31 46/93/31
f 8/97/31 6/77/31 30/79/31
f 16/102/31 14/98/31 22/100/31
f 24/104/31 12/99/31 10/67/31
f 34/105/31 64/81/31 36/96/31
f 64/81/31 34/105/31 32/82/31
f 22/100/31 12/99/31 24/104/31
f 62/68/32 64/70/32 63/69/32
f 64/70/33 2/1/33 1/3/33
f 63/106/34 1/107/34 31/108/34
f 3/109/34 5/110/34 29/111/34
f 7/112/34 9/113/34 27/114/34
f 11/115/34 13/116/34 23/117/34
f 15/118/34 17/119/34 19/120/34
f 19/120/34 21/121/34 15/118/34
f 23/117/34 25/122/34 11/115/34
f 27/114/34 29/111/34 5/110/34
f 31/108/34 33/123/34 63/106/34
f 35/124/34 37/73/34 63/106/34
f 39/71/34 41/125/34 57/126/34
f 43/127/34 45/128/34 55/129/34
f 47/130/34 49/131/34 51/132/34
f 51/132/34 53/133/34 47/130/34
f 55/129/34 57/126/34 41/125/34
f 59/134/34 61/72/34 39/71/34
f 1/107/34 29/111/34 31/108/34
f 9/113/34 25/122/34 27/114/34
f 15/118/34 21/121/34 13/116/34
f 23/117/34 13/116/34 21/121/34
f 33/123/34 35/124/34 63/106/34
f 41/125/34 43/127/34 55/129/34
f 47/130/34 53/133/34 45/128/34
f 57/126/34 59/134/34 39/71/34
f 5/110/34 7/112/34 27/114/34
f 25/122/34 9/113/34 11/115/34
f 37/73/34 61/72/34 63/106/34
f 53/133/34 55/129/34 45/128/34
f 3/109/34 29/111/34 1/107/34
